#!OML:ASF H:\ManfredETheater\Project 1\Capture day 1\Session 1\subject.ASF
:FULLY-SPECIFIED
:DEGREES
156
root -8.42691 15.4281 29.6655 -152.932 7.90657 179.205
lowerback 12.5907 1.64661 4.87924
upperback -3.4884 3.84264 4.54644
thorax -10.9243 1.83163 1.32726
lowerneck -16.9803 1.99808 1.90725
upperneck -1.26168 3.49179 -9.61212
head 2.5481 1.68924 -2.99513
rclavicle 3.18055e-015 -4.77083e-015
rhumerus -36.9168 6.63914 -85.5821
rradius 65.0607
rwrist -0.921518
rhand -29.9224 -0.78644
rfingers 7.12502
rthumb -3.2425 -30.7415
lclavicle 3.18055e-015 -4.77083e-015
lhumerus -44.6143 -10.8304 96.6522
lradius 68.2202
lwrist 1.04592
lhand -20.4194 -7.41067
lfingers 7.12502
lthumb 5.93496 22.4862
rfemur -16.1952 -8.20356 17.5404
rtibia 59.2976
rfoot -3.26566 -12.5729
rtoes -35.8619
lfemur -46.3381 8.14278 -26.9287
ltibia 72.6368
lfoot -30.3273 -14.6076
ltoes 4.74145
157
root -8.39479 15.4042 29.4069 -153.026 7.10646 178.4
lowerback 12.7074 1.39775 4.15926
upperback -3.42924 3.35006 4.45307
thorax -10.9569 1.6279 1.73479
lowerneck -17.0699 1.93676 1.84287
upperneck -1.55697 3.42036 -9.45411
head 2.46209 1.67832 -2.94216
rclavicle -1.98785e-014 -5.56597e-014
rhumerus -37.7832 5.15982 -84.4963
rradius 64.5832
rwrist -1.31783
rhand -30.5876 -1.02449
rfingers 7.12502
rthumb -3.88486 -30.9688
lclavicle -1.98785e-014 -5.56597e-014
lhumerus -43.2519 -11.3701 96.6789
lradius 69.4812
lwrist 0.927617
lhand -20.9888 -7.57464
lfingers 7.12502
lthumb 5.38521 22.3369
rfemur -18.6584 -8.69182 17.0316
rtibia 63.7825
rfoot -3.87006 -12.277
rtoes -35.1553
lfemur -44.4983 7.02812 -27.2228
ltibia 71.4191
lfoot -31.0923 -14.3339
ltoes 4.73635
158
root -8.36195 15.3808 29.1468 -153.1 6.23626 177.608
lowerback 12.8262 1.11459 3.50511
upperback -3.3689 2.82696 4.37757
thorax -10.9777 1.40768 2.13469
lowerneck -17.1346 1.8843 1.78178
upperneck -1.84849 3.36081 -9.30588
head 2.37461 1.67303 -2.89202
rclavicle -2.94201e-014 -1.59028e-015
rhumerus -38.7176 3.77049 -83.3623
rradius 64.1699
rwrist -1.78008
rhand -31.3236 -1.31825
rfingers 7.12502
rthumb -4.59565 -31.2484
lclavicle -2.94201e-014 -1.59028e-015
lhumerus -41.7515 -11.9443 96.697
lradius 70.7885
lwrist 0.803592
lhand -21.5343 -7.70095
lfingers 7.12502
lthumb 4.85843 22.2233
rfemur -21.2667 -9.28502 16.6171
rtibia 68.1265
rfoot -4.91382 -12.2427
rtoes -34.6122
lfemur -42.677 5.91294 -27.4895
ltibia 70.1798
lfoot -31.7367 -14.1109
ltoes 4.73569
159
root -8.32945 15.3588 28.883 -153.158 5.31298 176.852
lowerback 12.9481 0.801072 2.94528
upperback -3.31087 2.28549 4.32539
thorax -10.9906 1.1753 2.51366
lowerneck -17.0012 1.86602 1.85957
upperneck -2.39681 3.31206 -9.04751
head 2.4356 1.69457 -3.10329
rclavicle 2.38542e-015 1.59028e-014
rhumerus -39.7463 2.51183 -82.1862
rradius 63.8514
rwrist -2.28147
rhand -32.0892 -1.65464
rfingers 7.12502
rthumb -5.3349 -31.5675
lclavicle 2.38542e-015 1.59028e-014
lhumerus -40.1549 -12.5294 96.7064
lradius 72.1385
lwrist 0.704275
lhand -22.0222 -7.82726
lfingers 7.12502
lthumb 4.38734 22.1073
rfemur -23.9999 -9.96012 16.3041
rtibia 72.2571
rfoot -6.22865 -12.3078
rtoes -34.3211
lfemur -40.8417 4.81491 -27.7066
ltibia 68.8946
lfoot -32.2738 -13.9565
ltoes 4.78089
160
root -8.29826 15.3389 28.614 -153.192 4.36381 176.144
lowerback 13.0592 0.466657 2.49035
upperback -3.26103 1.7402 4.29704
thorax -10.9952 0.937012 2.86251
lowerneck -17.0475 1.84741 1.79539
upperneck -2.56282 3.29806 -8.921
head 2.37958 1.70212 -3.04633
rclavicle 2.46493e-014 7.4743e-014
rhumerus -40.8731 1.41588 -80.9793
rradius 63.6525
rwrist -2.79857
rhand -32.8394 -2.04142
rfingers 7.12502
rthumb -6.05916 -31.9348
lclavicle 2.46493e-014 7.4743e-014
lhumerus -38.5126 -13.1121 96.7129
lradius 73.5373
lwrist 0.627859
lhand -22.4515 -7.97113
lfingers 7.12502
lthumb 3.97273 21.9716
rfemur -26.8645 -10.6829 16.0923
rtibia 76.1182
rfoot -7.67744 -12.3648
rtoes -34.3642
lfemur -38.9841 3.74814 -27.8677
ltibia 67.538
lfoot -32.7104 -13.8769
ltoes 4.85782
161
root -8.26871 15.322 28.3379 -153.21 3.4128 175.488
lowerback 13.1565 0.119373 2.13552
upperback -3.22103 1.20082 4.29144
thorax -10.9939 0.697534 3.17988
lowerneck -17.0939 1.8509 1.7324
upperneck -2.64209 3.31207 -8.80823
head 2.35585 1.71732 -2.99312
rclavicle 1.66979e-014 1.90833e-014
rhumerus -42.0996 0.512066 -79.7536
rradius 63.5809
rwrist -3.29426
rhand -33.5275 -2.4301
rfingers 7.12502
rthumb -6.72345 -32.3034
lclavicle 1.66979e-014 1.90833e-014
lhumerus -36.8744 -13.695 96.7216
lradius 74.9896
lwrist 0.575975
lhand -22.8902 -8.19805
lfingers 7.12502
lthumb 3.54913 21.7521
rfemur -29.85 -11.4267 15.9757
rtibia 79.6649
rfoot -9.15774 -12.2913
rtoes -34.6122
lfemur -37.0782 2.72644 -27.9738
ltibia 66.0828
lfoot -33.0459 -13.8811
ltoes 4.93672
162
root -8.24187 15.3087 28.0535 -153.209 2.50272 174.884
lowerback 13.2237 -0.22764 1.87392
upperback -3.18903 0.68222 4.30438
thorax -10.9776 0.4639 3.46066
lowerneck -17.1372 1.87857 1.67021
upperneck -2.63495 3.35699 -8.71852
head 2.36404 1.74144 -2.94647
rclavicle -3.97569e-015 -2.8625e-014
rhumerus -43.4138 -0.166867 -78.5279
rradius 63.6371
rwrist -3.7156
rhand -34.1434 -2.754
rfingers 7.12502
rthumb -7.31795 -32.6075
lclavicle -3.97569e-015 -2.8625e-014
lhumerus -35.2816 -14.2791 96.7363
lradius 76.5026
lwrist 0.525131
lhand -23.2938 -8.48018
lfingers 7.12502
lthumb 3.15938 21.4762
rfemur -32.9657 -12.1499 15.9442
rtibia 82.8655
rfoot -10.578 -11.9856
rtoes -34.9054
lfemur -35.1178 1.77313 -28.0412
ltibia 64.5055
lfoot -33.2599 -13.9721
ltoes 5.02579
163
root -8.21801 15.3005 27.7591 -153.195 1.67305 174.326
lowerback 13.2669 -0.5603 1.68224
upperback -3.16869 0.198316 4.32899
thorax -10.9567 0.243601 3.70685
lowerneck -17.1874 1.92981 1.6056
upperneck -2.53433 3.43332 -8.65526
head 2.40843 1.77425 -2.90684
rclavicle 1.98785e-014 1.11319e-013
rhumerus -44.8006 -0.597335 -77.3273
rradius 63.7981
rwrist -4.01123
rhand -34.6788 -2.9459
rfingers 7.12502
rthumb -7.8348 -32.7807
lclavicle 1.98785e-014 1.11319e-013
lhumerus -33.7808 -14.8764 96.7659
lradius 78.0793
lwrist 0.476621
lhand -23.6183 -8.69724
lfingers 7.12502
lthumb 2.84598 21.2635
rfemur -36.2022 -12.8203 15.9838
rtibia 85.6904
rfoot -11.9636 -11.4233
rtoes -35.3135
lfemur -33.0868 0.908344 -28.0931
ltibia 62.7833
lfoot -33.3282 -14.1455
ltoes 5.08112
164
root -8.19712 15.2985 27.4537 -153.166 0.955635 173.799
lowerback 13.2815 -0.62321 1.58943
upperback -3.18408 -0.303544 4.34867
thorax -10.95 -0.155085 3.92728
lowerneck -17.1988 2.00048 1.54023
upperneck -2.3878 3.5348 -8.63267
head 2.46445 1.81552 -2.87958
rclavicle -5.40694e-014 -2.70347e-014
rhumerus -46.2394 -0.747653 -76.1851
rradius 64.0513
rwrist -4.16564
rhand -35.1397 -3.06365
rfingers 7.12502
rthumb -8.27963 -32.8814
lclavicle -5.40694e-014 -2.70347e-014
lhumerus -32.4053 -15.4921 96.8127
lradius 79.697
lwrist 0.420552
lhand -23.9629 -8.99283
lfingers 7.12502
lthumb 2.51321 20.9721
rfemur -39.5559 -13.4208 16.0842
rtibia 88.1145
rfoot -13.2631 -10.6509
rtoes -35.819
lfemur -30.9839 0.141556 -28.157
ltibia 60.9002
lfoot -33.2097 -14.3888
ltoes 5.05263
165
root -8.1794 15.3034 27.1372 -153.107 0.398453 173.298
lowerback 13.2504 -0.900429 1.45325
upperback -3.19411 -0.691798 4.37427
thorax -10.9193 -0.327452 4.11876
lowerneck -17.1865 2.0902 1.46679
upperneck -2.19703 3.66311 -8.64032
head 2.53385 1.86655 -2.85946
rclavicle -1.19271e-014 7.31528e-014
rhumerus -47.6903 -0.619549 -75.1352
rradius 64.3505
rwrist -4.15723
rhand -35.5412 -3.03287
rfingers 7.12502
rthumb -8.66703 -32.835
lclavicle -1.19271e-014 7.31528e-014
lhumerus -31.1522 -16.1366 96.8657
lradius 81.3291
lwrist 0.381097
lhand -24.2945 -9.36715
lfingers 7.12502
lthumb 2.19292 20.6013
rfemur -43.0387 -13.9054 16.2452
rtibia 90.1199
rfoot -14.5113 -9.75392
rtoes -36.505
lfemur -28.8363 -0.513382 -28.2606
ltibia 58.8559
lfoot -32.8345 -14.7007
ltoes 4.9429
166
root -8.16468 15.3161 26.8085 -153.038 0.00127221 172.806
lowerback 13.1928 -1.14095 1.3196
upperback -3.21631 -1.03216 4.38724
thorax -10.8872 -0.477918 4.28305
lowerneck -17.1151 2.18856 1.38788
upperneck -2.00461 3.80374 -8.68705
head 2.59498 1.92281 -2.85096
rclavicle -2.54444e-014 -4.45278e-014
rhumerus -49.1281 -0.215883 -74.2083
rradius 64.6731
rwrist -4.00143
rhand -35.8801 -2.90725
rfingers 7.12502
rthumb -8.99408 -32.6955
lclavicle -2.54444e-014 -4.45278e-014
lhumerus -30.0312 -16.8055 96.9222
lradius 82.9444
lwrist 0.384866
lhand -24.6103 -9.84928
lfingers 7.12502
lthumb 1.88791 20.1221
rfemur -46.5878 -14.2774 16.4616
rtibia 91.6819
rfoot -15.6693 -8.80354
rtoes -37.1936
lfemur -26.6273 -1.08428 -28.4213
ltibia 56.6605
lfoot -32.1568 -15.072
ltoes 4.70901
167
root -8.15281 15.336 26.4684 -152.951 -0.215204 172.327
lowerback 13.102 -1.33536 1.18449
upperback -3.24828 -1.31319 4.37964
thorax -10.8486 -0.600941 4.4105
lowerneck -17.0217 2.29193 1.29782
upperneck -1.78753 3.95406 -8.75585
head 2.66169 1.98195 -2.84746
rclavicle -8.74653e-015 -2.8625e-014
rhumerus -50.5192 0.429054 -73.4307
rradius 64.9849
rwrist -3.7157
rhand -36.1523 -2.71159
rfingers 7.12502
rthumb -9.25676 -32.4884
lclavicle -8.74653e-015 -2.8625e-014
lhumerus -29.0302 -17.5013 96.9732
lradius 84.4959
lwrist 0.472934
lhand -24.8907 -10.5055
lfingers 7.12502
lthumb 1.61717 19.4681
rfemur -50.1874 -14.5133 16.7506
rtibia 92.7912
rfoot -16.7003 -7.87329
rtoes -37.8815
lfemur -24.396 -1.58839 -28.6439
ltibia 54.3484
lfoot -31.1075 -15.5058
ltoes 4.36871
168
root -8.1437 15.3628 26.1179 -152.838 -0.23969 171.864
lowerback 12.9835 -1.47796 1.04394
upperback -3.29302 -1.52765 4.34577
thorax -10.8116 -0.692702 4.49592
lowerneck -16.8973 2.39363 1.19416
upperneck -1.55821 4.10537 -8.84168
head 2.72727 2.04066 -2.84743
rclavicle 1.19271e-014 4.45278e-014
rhumerus -51.8368 1.26699 -72.816
rradius 65.2485
rwrist -3.31604
rhand -36.3527 -2.43339
rfingers 7.12502
rthumb -9.45015 -32.2015
lclavicle 1.19271e-014 4.45278e-014
lhumerus -28.15 -18.1964 97.0164
lradius 85.956
lwrist 0.595623
lhand -25.1141 -11.3163
lfingers 7.12502
lthumb 1.40135 18.6589
rfemur -53.8018 -14.5783 17.1182
rtibia 93.4366
rfoot -17.5994 -7.01005
rtoes -38.4793
lfemur -22.1809 -2.05352 -28.9327
ltibia 51.9624
lfoot -29.6138 -15.9931
ltoes 3.93901
169
root -8.13729 15.3967 25.7571 -152.728 -0.0656878 171.42
lowerback 12.8648 -1.56543 0.900088
upperback -3.33543 -1.67045 4.27748
thorax -10.7766 -0.750977 4.52886
lowerneck -16.7642 2.48892 1.07281
upperneck -1.3112 4.25276 -8.93095
head 2.79679 2.09652 -2.84578
rclavicle -1.98785e-014 -3.49861e-014
rhumerus -53.054 2.23716 -72.371
rradius 65.4511
rwrist -2.84599
rhand -36.4635 -2.08667
rfingers 7.12502
rthumb -9.55701 -31.8499
lclavicle -1.98785e-014 -3.49861e-014
lhumerus -27.3781 -18.8638 97.0468
lradius 87.2971
lwrist 0.718717
lhand -25.2453 -12.2323
lfingers 7.12502
lthumb 1.27466 17.7437
rfemur -57.3439 -14.4596 17.5564
rtibia 93.6076
rfoot -18.3778 -6.19462
rtoes -38.986
lfemur -19.9875 -2.48964 -29.2946
ltibia 49.5476
lfoot -27.6007 -16.5375
ltoes 3.44463
